<?xml version="1.0" encoding="UTF-8"?><svg xmlns="http://www.w3.org/2000/svg" width="1080" height="303.46" viewBox="0 0 1080 303.46"><g id="CEDAR_Text"><path id="R" d="M1080,239.8h-34.82c-2.93-4.64-4.52-11.73-4.76-21.26l-.73-19.55c-.49-10.91-2.99-18.47-7.51-22.66-4.52-4.19-11.5-6.29-20.95-6.29h-44.1v69.76h-33.72V61.68h80.75c20.12,0,35.61,4.52,46.48,13.56,10.87,9.04,16.31,21.26,16.31,36.65,0,10.34-2.54,19.2-7.64,26.57-5.09,7.37-12.44,12.73-22.05,16.06,9.37,2.93,15.9,7.47,19.61,13.62,3.71,6.15,5.76,14.27,6.17,24.37l1.47,26.51c.25,8.8,2.08,15.72,5.5,20.77ZM1012.2,143.53c9.37,0,16.72-2.38,22.05-7.15,5.33-4.76,8-11.67,8-20.71s-2.73-15.17-8.19-19.61c-5.46-4.44-13.15-6.66-23.09-6.66h-43.86v54.12h45.08Z" fill="#f4f4f4"/><path id="A" d="M870.73,200.46h-78.07l-13.8,39.34h-34.82l67.8-178.12h39.58l69.02,178.12h-35.79l-13.93-39.34ZM860.47,171.75l-7.09-19.3c-6.84-17.75-14.17-38.08-21.99-60.96-6.43,18.73-13.68,39.05-21.75,60.96l-6.72,19.3h57.54Z" fill="#f4f4f4"/><path id="D" d="M724.86,85.56c15.47,15.92,23.21,37.65,23.21,65.18s-7.74,49.25-23.21,65.18c-15.47,15.92-37.51,23.88-66.09,23.88h-68.05V61.68h68.05c28.59,0,50.62,7.96,66.09,23.88ZM698.78,195.39c9.49-10.22,14.23-25.11,14.23-44.65s-4.76-34.55-14.29-44.77c-9.53-10.22-23.01-15.33-40.44-15.33h-33.84v120.09h33.84c17.51,0,31.01-5.11,40.5-15.33Z" fill="#f4f4f4"/><path id="E" d="M472.34,91.97v42.03h88.33v28.95h-88.33v46.55h97.12v30.3h-130.84V61.68h131.33v30.3h-97.61Z" fill="#f4f4f4"/><path id="C" d="M301.19,237.29c-10.67-4.36-19.79-10.49-27.37-18.39-7.57-7.9-13.48-17.69-17.71-29.38-4.23-11.69-6.35-24.62-6.35-38.79,0-28.51,7.9-51.15,23.7-67.92,15.8-16.78,36.69-25.17,62.67-25.17,20.69,0,38.38,5.6,53.08,16.8,14.7,11.2,23.92,27.39,27.67,48.56h-34.21c-3.01-11.97-8.65-20.93-16.92-26.88-8.27-5.95-18.14-8.92-29.63-8.92-15.88,0-28.36,5.62-37.44,16.86-9.08,11.24-13.62,26.8-13.62,46.67s4.52,35.53,13.56,46.73c9.04,11.2,21.54,16.8,37.51,16.8,12.05,0,22.54-3.58,31.46-10.75,8.92-7.17,14.35-17.43,16.31-30.79h33.84c-1.22,11.48-4.26,21.79-9.1,30.91-4.85,9.12-10.95,16.57-18.33,22.36-7.37,5.78-15.66,10.2-24.86,13.25-9.2,3.05-18.98,4.58-29.32,4.58-12.62,0-24.27-2.18-34.94-6.54Z" fill="#f4f4f4"/></g><g id="CEDAR_Tree"><rect id="Trunk_Bottom" x="67.44" y="168.59" width="33.72" height="134.87" fill="#f4f4f4"/><rect id="Trunk_Top" x="67.44" y="67.44" width="33.72" height="67.44" fill="#f4f4f4"/><rect id="_7" x="134.87" y="202.31" width="33.72" height="33.72" fill="#f4f4f4"/><rect id="_6" x="134.87" y="134.87" width="33.72" height="33.72" fill="#f4f4f4"/><rect id="_5" x="134.87" y="67.44" width="33.72" height="33.72" fill="#f4f4f4"/><rect id="_4" x="67.44" width="33.72" height="33.72" fill="#f4f4f4"/><rect id="_3" y="67.44" width="33.72" height="33.72" fill="#f4f4f4"/><rect id="_2" y="134.87" width="33.72" height="33.72" fill="#f4f4f4"/><rect id="_1" y="202.31" width="33.72" height="33.72" fill="#f4f4f4"/></g></svg>